<?xml version="1.0" encoding="utf-8"?>
<!-- Generator: Adobe Illustrator 19.2.1, SVG Export Plug-In . SVG Version: 6.00 Build 0)  -->
<svg version="1.1"
	 id="svg60" xmlns:cc="http://creativecommons.org/ns#" xmlns:dc="http://purl.org/dc/elements/1.1/" xmlns:rdf="http://www.w3.org/1999/02/22-rdf-syntax-ns#" xmlns:svg="http://www.w3.org/2000/svg"
	 xmlns="http://www.w3.org/2000/svg" xmlns:xlink="http://www.w3.org/1999/xlink" x="0px" y="0px" viewBox="0 0 141.7 85"
	 style="enable-background:new 0 0 141.7 85;" xml:space="preserve">
<style type="text/css">
	.st0{fill:url(#path20_1_);}
	.st1{fill:#1B1918;}
	.st2{fill:#FFFFFF;}
	.st3{font-family:'BenguiatITCbyBT-BookItalic';}
	.st4{font-size:16px;}
	.st5{font-size:9px;}
	.st6{fill:#769319;}
	.st7{fill:#85735C;}
	.st8{fill:#005B99;}
	.st9{fill:#006699;}
</style>
<g id="g58">
	
		<linearGradient id="path20_1_" gradientUnits="userSpaceOnUse" x1="98.6" y1="77.5" x2="98.6" y2="9.3" gradientTransform="matrix(1 0 0 -1 0 86)">
		<stop  offset="0.6323" style="stop-color:#CF643D"/>
		<stop  offset="1" style="stop-color:#CF9A00"/>
		<stop  offset="1" style="stop-color:#CC8915"/>
		<stop  offset="1" style="stop-color:#CA7B26"/>
		<stop  offset="1" style="stop-color:#C97131"/>
		<stop  offset="1" style="stop-color:#C86C38"/>
		<stop  offset="1" style="stop-color:#C86A3A"/>
		<stop  offset="1" style="stop-color:#FFFF00"/>
		<stop  offset="1" style="stop-color:#C59E30"/>
		<stop  offset="1" style="stop-color:#C24064"/>
		<stop  offset="1" style="stop-color:#C24764"/>
	</linearGradient>
	<path id="path20" class="st0" d="M98.6,8.4c18.9,0,34.1,15.3,34.1,34.1s-15.3,34.1-34.1,34.1S64.5,61.4,64.5,42.5
		S79.8,8.4,98.6,8.4L98.6,8.4z"/>
	<g id="g26">
		<path id="path22" class="st1" d="M111.3,30.1c0.9-11.8,4.7-17.2,11.3-16.1c-3.6,2-5.6,5.1-4.2,10.7c6.6-8.9,14.8-7,14.7,0.9
			c-5.4-3.2-8.7-1.8-9.1,6.2c7.4,0,11.1,3.5,6.4,14.4c-2.4-9.5-6.2-10.5-11.2-5.1c9.4,5.4,14.5,14.2,16.3,25.4l-4.6-1.8
			c-2.1-11-6.9-18.4-14.2-22.2c-6.1,3.8-3.7,11.1-3.4,17.5c-8.1-6.9-3.7-10.4-4.1-14.7c-0.4-3.8-3.7-3-8.5,8.6
			c-1.4-6.8,0.2-12.7,6.5-17.1c-2.6-2-6.1-0.4-10.3,3.6C100.2,30.7,104.6,25.4,111.3,30.1z"/>
		<path id="path24" class="st1" d="M119.2,41.2c9.4,5.4,14.5,14.2,16.3,25.4l-4.6-1.8c-2.1-11-6.9-18.4-14.2-22.2L119.2,41.2z"/>
	</g>
	<text transform="matrix(1 0 0 1 6.0976 55.6234)" class="st2 st3 st4">TAMBAÚ</text>
	<text transform="matrix(1 0 0 1 6.0976 55.6234)" class="st2 st3 st4">TAMBAÚ</text>
	<text transform="matrix(1 0 0 1 8.8588 42.0474)" class="st2 st3 st5">POUSADA</text>
	<text transform="matrix(1 0 0 1 8.8588 42.0474)" class="st2 st3 st5">POUSADA</text>
	<g id="g48">
		<path id="path44" class="st6" d="M110.8,30.2c0.9-11.8,4.7-17.2,11.3-16.1c-3.6,2-5.6,5.1-4.2,10.7c6.6-8.9,14.8-7,14.7,0.9
			c-5.4-3.2-8.7-1.8-9.1,6.2c7.4,0,11.1,3.5,6.4,14.4c-2.4-9.5-6.2-10.5-11.2-5.1c9.4,5.4,14.5,14.2,16.3,25.4l-4.6-1.8
			c-2.1-11-6.9-18.4-14.2-22.2c-6.1,3.8-3.7,11.1-3.4,17.5c-8.1-6.9-3.7-10.4-4.1-14.7c-0.4-3.8-3.7-3-8.5,8.6
			c-1.4-6.8,0.2-12.7,6.5-17.1c-2.6-2-6.1-0.4-10.3,3.6C99.7,30.8,104.1,25.5,110.8,30.2L110.8,30.2z"/>
		<path id="path46" class="st7" d="M118.7,41.3c9.4,5.4,14.5,14.2,16.3,25.4l-4.6-1.8c-2.1-11-6.9-18.4-14.2-22.2L118.7,41.3z"/>
	</g>
	<g id="g56">
		<path id="path50" class="st8" d="M9.8,61.9c20-11.1,52.2,2,70.4,0.9v0.3c-16.8,2.4-48.7-8.3-70.4,0L9.8,61.9z"/>
		<path id="path52" class="st9" d="M135.6,66.5c-20-11.1-52.2,2-70.4,0.9v0.3c16.8,2.4,48.7-8.3,70.4,0V66.5z"/>
		<path id="path54" class="st9" d="M9.8,69.4c20-11.1,52.2,2,70.4,0.9v0.3c-16.8,2.4-48.7-8.3-70.4,0L9.8,69.4z"/>
	</g>
</g>
</svg>
